<?xml version="1.0" encoding="utf-8"?>
<!DOCTYPE svg PUBLIC "-//W3C//DTD SVG 1.1//EN" "http://www.w3.org/Graphics/SVG/1.1/DTD/svg11.dtd">
<svg version="1.1" xmlns="http://www.w3.org/2000/svg" xmlns:xlink="http://www.w3.org/1999/xlink" x="0px" y="0px" viewBox="0 0 1000 1000" enable-background="new 0 0 1000 1000" xml:space="preserve">
<metadata> Svg Vector Icons : http://www.onlinewebfonts.com/icon </metadata>
<g><g><path d="M989.6,710.2l-71.3-312c-0.1-0.6-0.3-1.3-0.6-1.9c-5.4-19.7-31.6-34.6-82.5-47.2c-9.7-50.9-54.5-89.6-108.2-89.6c-3.4,0-6.9,0.2-10.3,0.5c-18.7-36.1-56.5-59.6-97.9-59.6c-12.6,0-25.2,2.2-37,6.4c-17.7-27.5-48.2-44.5-81.7-44.5c-33.5,0-64,17-81.7,44.5c-11.8-4.2-24.4-6.4-37-6.4c-41.4,0-79.2,23.4-97.9,59.6c-3.4-0.3-6.9-0.5-10.3-0.5c-53.7,0-98.5,38.6-108.2,89.6C112.7,362,86.5,377.3,82,397.7c-0.1,0.2-0.2,0.5-0.2,0.7L10.4,710.2c-0.3,1.2-0.4,2.5-0.4,3.8c0,32.6,51,61.7,151.5,86.5c97.1,23.9,217.3,37.1,338.5,37.1c121.2,0,241.4-13.2,338.5-37.1C939,775.7,990,746.6,990,714C990,712.7,989.9,711.4,989.6,710.2z M836.1,384.6c32.4,8.8,43.7,16.5,47.4,19.9c-4.2,3.8-18.6,13.5-63.2,23.9C828.5,415.1,834,400.2,836.1,384.6z M273.1,293.6c5.6,0,11.3,0.6,16.8,1.9c8.4,1.9,16.8-2.7,19.8-10.8c10.9-30,39.7-50.2,71.6-50.2c12.8,0,25.4,3.2,36.5,9.3c4.2,2.3,9.3,2.7,13.8,1.1c4.6-1.6,8.2-5.1,10.1-9.5c9.8-23.7,32.7-39,58.3-39c25.6,0,48.5,15.3,58.3,39c1.9,4.5,5.5,7.9,10.1,9.5c4.6,1.6,9.6,1.2,13.8-1.1c11.1-6.1,23.7-9.3,36.5-9.3c31.9,0,60.7,20.2,71.6,50.2c2.9,8.1,11.4,12.7,19.8,10.8c5.6-1.3,11.2-1.9,16.8-1.9c42,0,75,34.2,76.1,76.1c0.8,29-19.9,54.6-40.1,69.2c-72.6,10.9-165.6,16.9-262.9,16.9c-94.9,0-185.7-5.7-257.5-16.1c-26.8-12.5-45.6-40.4-45.6-70C196.9,327.8,231.1,293.6,273.1,293.6z M163.9,384.6c2.1,15.7,7.6,30.6,15.9,43.7c-44.7-10.3-59.1-20-63.2-23.9C120.2,401.1,131.5,393.4,163.9,384.6z M822.8,769.3c-93.3,22.1-207.9,34.3-322.8,34.3s-229.5-12.2-322.8-34.3c-91.9-21.8-128.2-45.5-132.8-54.8l62.9-275.1c6.5,3.6,12.5,6.1,16.1,7.5c21.4,8.6,51.5,16.2,89.6,22.7c76.8,13.1,178.7,20.3,286.9,20.3s210.1-7.2,286.9-20.3c38.1-6.5,68.2-14.1,89.6-22.7c3.6-1.4,9.7-3.9,16.2-7.5l62.9,275.1C951.1,723.7,914.7,747.5,822.8,769.3z"/><path d="M707.2,503.5c-39.6,0-72.5,29-78.8,66.8H371.6c-6.2-37.8-39.2-66.8-78.8-66.8c-44,0-79.8,35.8-79.8,79.8c0,17.6,5.7,34.4,16.1,48.1c-10.4,13.7-16.1,30.5-16.1,48.1c0,44,35.8,79.8,79.8,79.8c39.6,0,72.5-29,78.8-66.8h256.9c6.2,37.8,39.2,66.8,78.8,66.8c44,0,79.8-35.8,79.8-79.8c0-17.6-5.7-34.4-16.1-48.1c10.4-13.7,16.1-30.5,16.1-48.1C787,539.3,751.2,503.5,707.2,503.5z M736.6,644.4c10.4,8.7,16.4,21.5,16.4,35c0,25.2-20.5,45.8-45.7,45.8s-45.8-20.5-45.8-45.8c0-1,0-2,0.1-2.9c0.3-4.7-1.4-9.3-4.6-12.7c-3.2-3.4-7.7-5.4-12.4-5.4H355.5c-4.7,0-9.2,1.9-12.4,5.4c-3.2,3.4-4.9,8-4.6,12.7c0.1,1,0.1,1.9,0.1,2.9c0,25.2-20.5,45.8-45.8,45.8c-25.2,0-45.7-20.5-45.7-45.8c0-13.5,6-26.3,16.4-35c3.9-3.2,6.1-8,6.1-13c0-5-2.2-9.8-6.1-13c-10.4-8.7-16.4-21.5-16.4-35c0-25.2,20.5-45.7,45.7-45.7c25.2,0,45.8,20.5,45.8,45.7c0,1,0,2-0.1,2.9c-0.3,4.7,1.4,9.3,4.6,12.7c3.2,3.4,7.7,5.4,12.4,5.4h289.1c4.7,0,9.2-1.9,12.4-5.4c3.2-3.4,4.9-8,4.6-12.7c-0.1-1-0.1-1.9-0.1-2.9c0-25.2,20.5-45.7,45.8-45.7s45.7,20.5,45.7,45.7c0,13.5-6,26.3-16.4,35c-3.9,3.2-6.1,8-6.1,13C730.5,636.4,732.7,641.2,736.6,644.4z"/></g><g></g><g></g><g></g><g></g><g></g><g></g><g></g><g></g><g></g><g></g><g></g><g></g><g></g><g></g><g></g></g>
</svg>
